<mxfile host="app.diagrams.net" modified="2020-12-01T16:25:02.630Z" agent="5.0 (Macintosh; Intel Mac OS X 10_15_7) AppleWebKit/537.36 (KHTML, like Gecko) Chrome/87.0.4280.67 Safari/537.36" etag="u8XdtkUNoBhtqPadj74u" version="13.10.1" type="github">
  <diagram id="C5RBs43oDa-KdzZeNtuy" name="Page-1">
    <mxGraphModel dx="1282" dy="708" grid="1" gridSize="10" guides="1" tooltips="1" connect="1" arrows="1" fold="1" page="1" pageScale="1" pageWidth="827" pageHeight="1169" math="0" shadow="0">
      <root>
        <mxCell id="WIyWlLk6GJQsqaUBKTNV-0" />
        <mxCell id="WIyWlLk6GJQsqaUBKTNV-1" parent="WIyWlLk6GJQsqaUBKTNV-0" />
        <mxCell id="ryDZC5mOGuiZ6I-_YwJG-22" value="" style="rounded=0;whiteSpace=wrap;html=1;" vertex="1" parent="WIyWlLk6GJQsqaUBKTNV-1">
          <mxGeometry x="420" y="70" width="360" height="440" as="geometry" />
        </mxCell>
        <mxCell id="ryDZC5mOGuiZ6I-_YwJG-21" value="" style="rounded=0;whiteSpace=wrap;html=1;" vertex="1" parent="WIyWlLk6GJQsqaUBKTNV-1">
          <mxGeometry x="39" y="70" width="360" height="440" as="geometry" />
        </mxCell>
        <mxCell id="ryDZC5mOGuiZ6I-_YwJG-0" value="Welcome to Flicks Online" style="rounded=0;whiteSpace=wrap;html=1;" vertex="1" parent="WIyWlLk6GJQsqaUBKTNV-1">
          <mxGeometry x="139" y="90" width="160" height="60" as="geometry" />
        </mxCell>
        <mxCell id="ryDZC5mOGuiZ6I-_YwJG-2" value="&lt;br&gt;Featured Films&lt;br&gt;&lt;br&gt;&lt;div style=&quot;text-align: left&quot;&gt;&lt;span&gt;The Lord of the Rings&amp;nbsp; $3.95&lt;/span&gt;&lt;/div&gt;&lt;div style=&quot;text-align: left&quot;&gt;&lt;span&gt;&lt;br&gt;&lt;/span&gt;&lt;/div&gt;&lt;div style=&quot;text-align: left&quot;&gt;&lt;span&gt;Lone Survivor&amp;nbsp; $4.52&lt;/span&gt;&lt;/div&gt;&lt;div style=&quot;text-align: left&quot;&gt;&lt;span&gt;&lt;br&gt;&lt;/span&gt;&lt;/div&gt;&lt;div style=&quot;text-align: left&quot;&gt;&lt;span&gt;The Grinch&amp;nbsp; $4.75&lt;/span&gt;&lt;/div&gt;&lt;div style=&quot;text-align: left&quot;&gt;&lt;br&gt;&lt;/div&gt;&lt;div style=&quot;text-align: left&quot;&gt;&lt;span&gt;Dirty Dancing&amp;nbsp; $3.25&lt;/span&gt;&lt;/div&gt;&lt;div style=&quot;text-align: left&quot;&gt;&lt;br&gt;&lt;/div&gt;&lt;div style=&quot;text-align: left&quot;&gt;&lt;span&gt;American Gangster&amp;nbsp; $4.25&lt;/span&gt;&lt;/div&gt;&lt;div style=&quot;text-align: left&quot;&gt;&lt;br&gt;&lt;/div&gt;&lt;div style=&quot;text-align: left&quot;&gt;&lt;span&gt;Choose For Me&amp;nbsp; $1.00&lt;/span&gt;&lt;/div&gt;&lt;div style=&quot;text-align: left&quot;&gt;&lt;span&gt;&amp;nbsp; &amp;nbsp; &amp;nbsp;Comedy&lt;/span&gt;&lt;/div&gt;&lt;div style=&quot;text-align: left&quot;&gt;&lt;span&gt;&amp;nbsp; &amp;nbsp; &amp;nbsp;Action&lt;/span&gt;&lt;/div&gt;&lt;div style=&quot;text-align: left&quot;&gt;&lt;span&gt;&amp;nbsp; &amp;nbsp; &amp;nbsp;Drama&lt;/span&gt;&lt;/div&gt;&lt;div style=&quot;text-align: left&quot;&gt;&lt;span&gt;&lt;br&gt;&lt;/span&gt;&lt;/div&gt;" style="whiteSpace=wrap;html=1;aspect=fixed;" vertex="1" parent="WIyWlLk6GJQsqaUBKTNV-1">
          <mxGeometry x="94.5" y="160" width="270" height="270" as="geometry" />
        </mxCell>
        <mxCell id="ryDZC5mOGuiZ6I-_YwJG-4" value="" style="rounded=0;whiteSpace=wrap;html=1;" vertex="1" parent="WIyWlLk6GJQsqaUBKTNV-1">
          <mxGeometry x="127" y="241" width="10" height="10" as="geometry" />
        </mxCell>
        <mxCell id="ryDZC5mOGuiZ6I-_YwJG-5" value="" style="rounded=0;whiteSpace=wrap;html=1;" vertex="1" parent="WIyWlLk6GJQsqaUBKTNV-1">
          <mxGeometry x="127" y="270" width="10" height="10" as="geometry" />
        </mxCell>
        <mxCell id="ryDZC5mOGuiZ6I-_YwJG-6" value="" style="rounded=0;whiteSpace=wrap;html=1;" vertex="1" parent="WIyWlLk6GJQsqaUBKTNV-1">
          <mxGeometry x="127" y="299.5" width="10" height="10" as="geometry" />
        </mxCell>
        <mxCell id="ryDZC5mOGuiZ6I-_YwJG-7" value="" style="rounded=0;whiteSpace=wrap;html=1;" vertex="1" parent="WIyWlLk6GJQsqaUBKTNV-1">
          <mxGeometry x="127" y="327" width="10" height="10" as="geometry" />
        </mxCell>
        <mxCell id="ryDZC5mOGuiZ6I-_YwJG-8" value="" style="rounded=0;whiteSpace=wrap;html=1;" vertex="1" parent="WIyWlLk6GJQsqaUBKTNV-1">
          <mxGeometry x="127" y="355" width="10" height="10" as="geometry" />
        </mxCell>
        <mxCell id="ryDZC5mOGuiZ6I-_YwJG-9" value="" style="rounded=0;whiteSpace=wrap;html=1;" vertex="1" parent="WIyWlLk6GJQsqaUBKTNV-1">
          <mxGeometry x="127" y="213" width="10" height="10" as="geometry" />
        </mxCell>
        <mxCell id="ryDZC5mOGuiZ6I-_YwJG-11" value="" style="ellipse;whiteSpace=wrap;html=1;aspect=fixed;" vertex="1" parent="WIyWlLk6GJQsqaUBKTNV-1">
          <mxGeometry x="159" y="372" width="6" height="6" as="geometry" />
        </mxCell>
        <mxCell id="ryDZC5mOGuiZ6I-_YwJG-14" value="Your Move Rental Total:&amp;nbsp;" style="rounded=0;whiteSpace=wrap;html=1;" vertex="1" parent="WIyWlLk6GJQsqaUBKTNV-1">
          <mxGeometry x="525" y="200" width="150" height="60" as="geometry" />
        </mxCell>
        <mxCell id="ryDZC5mOGuiZ6I-_YwJG-15" value="$10.00" style="rounded=0;whiteSpace=wrap;html=1;" vertex="1" parent="WIyWlLk6GJQsqaUBKTNV-1">
          <mxGeometry x="525" y="290" width="150" height="60" as="geometry" />
        </mxCell>
        <mxCell id="ryDZC5mOGuiZ6I-_YwJG-16" value="Order Now&amp;nbsp;" style="rounded=0;whiteSpace=wrap;html=1;" vertex="1" parent="WIyWlLk6GJQsqaUBKTNV-1">
          <mxGeometry x="159" y="450" width="120" height="40" as="geometry" />
        </mxCell>
        <mxCell id="ryDZC5mOGuiZ6I-_YwJG-18" value="" style="ellipse;whiteSpace=wrap;html=1;aspect=fixed;" vertex="1" parent="WIyWlLk6GJQsqaUBKTNV-1">
          <mxGeometry x="159" y="386" width="6" height="6" as="geometry" />
        </mxCell>
        <mxCell id="ryDZC5mOGuiZ6I-_YwJG-19" value="" style="ellipse;whiteSpace=wrap;html=1;aspect=fixed;" vertex="1" parent="WIyWlLk6GJQsqaUBKTNV-1">
          <mxGeometry x="159" y="400" width="6" height="6" as="geometry" />
        </mxCell>
        <mxCell id="ryDZC5mOGuiZ6I-_YwJG-23" value="Screen 1" style="text;html=1;strokeColor=none;fillColor=none;align=center;verticalAlign=middle;whiteSpace=wrap;rounded=0;" vertex="1" parent="WIyWlLk6GJQsqaUBKTNV-1">
          <mxGeometry x="54.5" y="480" width="55.5" height="20" as="geometry" />
        </mxCell>
        <mxCell id="ryDZC5mOGuiZ6I-_YwJG-24" value="Screen 2" style="text;html=1;strokeColor=none;fillColor=none;align=center;verticalAlign=middle;whiteSpace=wrap;rounded=0;" vertex="1" parent="WIyWlLk6GJQsqaUBKTNV-1">
          <mxGeometry x="440" y="480" width="55.5" height="20" as="geometry" />
        </mxCell>
      </root>
    </mxGraphModel>
  </diagram>
</mxfile>
